<?xml version="1.0" encoding="UTF-8"?>
<svg width="200" height="200" viewBox="0 0 200 200" fill="none" xmlns="http://www.w3.org/2000/svg">
  <!-- Background Circle -->
  <circle cx="100" cy="100" r="95" fill="#F0FDF4" opacity="0.5"/>
  
  <!-- Globe Base -->
  <circle cx="100" cy="100" r="60" fill="#86EFAC" stroke="#22C55E" stroke-width="4"/>
  
  <!-- Latitude Lines -->
  <path d="M40 100h120" stroke="#22C55E" stroke-width="2" opacity="0.6"/>
  <path d="M45 70h110" stroke="#22C55E" stroke-width="2" opacity="0.6"/>
  <path d="M45 130h110" stroke="#22C55E" stroke-width="2" opacity="0.6"/>
  
  <!-- Longitude Lines -->
  <path d="M100 40v120" stroke="#22C55E" stroke-width="2" opacity="0.6"/>
  <ellipse cx="100" cy="100" rx="40" ry="60" stroke="#22C55E" stroke-width="2" opacity="0.6"/>
  <ellipse cx="100" cy="100" rx="40" ry="60" transform="rotate(60 100 100)" stroke="#22C55E" stroke-width="2" opacity="0.6"/>
  <ellipse cx="100" cy="100" rx="40" ry="60" transform="rotate(-60 100 100)" stroke="#22C55E" stroke-width="2" opacity="0.6"/>
  
  <!-- Connection Points -->
  <circle cx="70" cy="80" r="6" fill="#16A34A"/>
  <circle cx="130" cy="90" r="6" fill="#16A34A"/>
  <circle cx="85" cy="130" r="6" fill="#16A34A"/>
  <circle cx="120" cy="110" r="6" fill="#16A34A"/>
  
  <!-- Connection Lines -->
  <path d="M70 80L130 90" stroke="#16A34A" stroke-width="2"/>
  <path d="M130 90L120 110" stroke="#16A34A" stroke-width="2"/>
  <path d="M120 110L85 130" stroke="#16A34A" stroke-width="2"/>
  <path d="M85 130L70 80" stroke="#16A34A" stroke-width="2"/>
  
  <!-- Orbiting Elements -->
  <g transform="rotate(45 100 100)">
    <circle cx="100" cy="25" r="8" fill="#4ADE80"/>
    <path d="M100 33v12" stroke="#4ADE80" stroke-width="2"/>
  </g>
  <g transform="rotate(165 100 100)">
    <circle cx="100" cy="25" r="8" fill="#4ADE80"/>
    <path d="M100 33v12" stroke="#4ADE80" stroke-width="2"/>
  </g>
  <g transform="rotate(285 100 100)">
    <circle cx="100" cy="25" r="8" fill="#4ADE80"/>
    <path d="M100 33v12" stroke="#4ADE80" stroke-width="2"/>
  </g>
</svg> 