<?xml version="1.0" encoding="UTF-8"?>
<svg width="240" height="240" viewBox="0 0 240 240" fill="none" xmlns="http://www.w3.org/2000/svg">
  <!-- Rocket Body -->
  <path d="M120 40C120 40 160 80 160 160H80C80 80 120 40 120 40Z" fill="#3B82F6"/>
  <path d="M100 160H140V180C140 191.046 131.046 200 120 200C108.954 200 100 191.046 100 180V160Z" fill="#2563EB"/>
  
  <!-- Rocket Window -->
  <circle cx="120" cy="120" r="15" fill="#BFDBFE"/>
  
  <!-- Flames -->
  <path d="M110 180C110 180 120 200 120 220C120 200 130 180 130 180" fill="#F59E0B" stroke="#F59E0B" stroke-width="4"/>
  
  <!-- People -->
  <circle cx="70" cy="140" r="10" fill="#1E3A8A"/>
  <circle cx="170" cy="140" r="10" fill="#1E3A8A"/>
  <circle cx="120" cy="160" r="10" fill="#1E3A8A"/>
  
  <!-- Stars -->
  <circle cx="40" cy="40" r="2" fill="#60A5FA"/>
  <circle cx="200" cy="60" r="2" fill="#60A5FA"/>
  <circle cx="180" cy="30" r="2" fill="#60A5FA"/>
  <circle cx="60" cy="70" r="2" fill="#60A5FA"/>
</svg> 